<?xml version="1.0" encoding="UTF-8" standalone="no"?>
<svg width="20px" height="17px" viewBox="0 0 20 17" version="1.1" xmlns="http://www.w3.org/2000/svg" xmlns:xlink="http://www.w3.org/1999/xlink">
    <!-- Generator: Sketch 3.6.1 (26313) - http://www.bohemiancoding.com/sketch -->
    <title>audio-icon</title>
    <desc>Created with Sketch.</desc>
    <defs>
        <linearGradient x1="50%" y1="0%" x2="50%" y2="100%" id="linearGradient-1">
            <stop stop-color="#FCE13C" offset="0%"></stop>
            <stop stop-color="#D05D00" offset="100%"></stop>
        </linearGradient>
    </defs>
    <g id="Page-1" stroke="none" stroke-width="1" fill="none" fill-rule="evenodd">
        <g id="Desktop" transform="translate(-628.000000, -222.000000)" fill="url(#linearGradient-1)">
            <path d="M637,224.125 L637,236.875 C637,237.078126 636.925782,237.253906 636.777344,237.402344 C636.628906,237.550782 636.453126,237.625 636.25,237.625 C636.046874,237.625 635.871094,237.550782 635.722656,237.402344 L631.820312,233.5 L628.75,233.5 C628.546874,233.5 628.371094,233.425782 628.222656,233.277344 C628.074218,233.128906 628,232.953126 628,232.75 L628,228.25 C628,228.046874 628.074218,227.871094 628.222656,227.722656 C628.371094,227.574218 628.546874,227.5 628.75,227.5 L631.820312,227.5 L635.722656,223.597656 C635.871094,223.449218 636.046874,223.375 636.25,223.375 C636.453126,223.375 636.628906,223.449218 636.777344,223.597656 C636.925782,223.746094 637,223.921874 637,224.125 L637,224.125 Z M641.5,230.5 C641.5,231.093753 641.333986,231.646482 641.001953,232.158203 C640.66992,232.669924 640.230471,233.035155 639.683594,233.253906 C639.605468,233.292969 639.507813,233.3125 639.390625,233.3125 C639.187499,233.3125 639.011719,233.240235 638.863281,233.095703 C638.714843,232.951171 638.640625,232.773439 638.640625,232.5625 C638.640625,232.398437 638.6875,232.259766 638.78125,232.146484 C638.875,232.033203 638.988281,231.935547 639.121094,231.853516 C639.253907,231.771484 639.386718,231.681641 639.519531,231.583984 C639.652344,231.486328 639.765625,231.347657 639.859375,231.167969 C639.953125,230.98828 640,230.765626 640,230.5 C640,230.234374 639.953125,230.01172 639.859375,229.832031 C639.765625,229.652343 639.652344,229.513672 639.519531,229.416016 C639.386718,229.318359 639.253907,229.228516 639.121094,229.146484 C638.988281,229.064453 638.875,228.966797 638.78125,228.853516 C638.6875,228.740234 638.640625,228.601563 638.640625,228.4375 C638.640625,228.226561 638.714843,228.048829 638.863281,227.904297 C639.011719,227.759765 639.187499,227.6875 639.390625,227.6875 C639.507813,227.6875 639.605468,227.707031 639.683594,227.746094 C640.230471,227.957032 640.66992,228.32031 641.001953,228.835938 C641.333986,229.351565 641.5,229.906247 641.5,230.5 L641.5,230.5 Z M644.5,230.5 C644.5,231.695318 644.167972,232.798823 643.503906,233.810547 C642.83984,234.822271 641.960943,235.558591 640.867188,236.019531 C640.765624,236.058594 640.667969,236.078125 640.574219,236.078125 C640.36328,236.078125 640.183594,236.003907 640.035156,235.855469 C639.886718,235.707031 639.8125,235.531251 639.8125,235.328125 C639.8125,235.023436 639.964842,234.79297 640.269531,234.636719 C640.707033,234.410155 641.003905,234.238282 641.160156,234.121094 C641.738284,233.699217 642.189452,233.169925 642.513672,232.533203 C642.837892,231.896481 643,231.218754 643,230.5 C643,229.781246 642.837892,229.103519 642.513672,228.466797 C642.189452,227.830075 641.738284,227.300783 641.160156,226.878906 C641.003905,226.761718 640.707033,226.589845 640.269531,226.363281 C639.964842,226.20703 639.8125,225.976564 639.8125,225.671875 C639.8125,225.468749 639.886718,225.292969 640.035156,225.144531 C640.183594,224.996093 640.359374,224.921875 640.5625,224.921875 C640.664063,224.921875 640.765624,224.941406 640.867188,224.980469 C641.960943,225.441409 642.83984,226.177729 643.503906,227.189453 C644.167972,228.201177 644.5,229.304682 644.5,230.5 L644.5,230.5 Z M647.5,230.5 C647.5,232.296884 647.003911,233.947258 646.011719,235.451172 C645.019526,236.955086 643.699227,238.062496 642.050781,238.773438 C641.949218,238.8125 641.847657,238.832031 641.746094,238.832031 C641.542968,238.832031 641.367188,238.757813 641.21875,238.609375 C641.070312,238.460937 640.996094,238.285157 640.996094,238.082031 C640.996094,237.80078 641.148436,237.570313 641.453125,237.390625 C641.507813,237.359375 641.595703,237.31836 641.716797,237.267578 C641.837891,237.216797 641.925781,237.175781 641.980469,237.144531 C642.339846,236.949218 642.660155,236.750001 642.941406,236.546875 C643.902349,235.835934 644.652341,234.949224 645.191406,233.886719 C645.730471,232.824213 646,231.695318 646,230.5 C646,229.304682 645.730471,228.175787 645.191406,227.113281 C644.652341,226.050776 643.902349,225.164066 642.941406,224.453125 C642.660155,224.249999 642.339846,224.050782 641.980469,223.855469 C641.925781,223.824219 641.837891,223.783203 641.716797,223.732422 C641.595703,223.68164 641.507813,223.640625 641.453125,223.609375 C641.148436,223.429687 640.996094,223.19922 640.996094,222.917969 C640.996094,222.714843 641.070312,222.539063 641.21875,222.390625 C641.367188,222.242187 641.542968,222.167969 641.746094,222.167969 C641.847657,222.167969 641.949218,222.1875 642.050781,222.226562 C643.699227,222.937504 645.019526,224.044914 646.011719,225.548828 C647.003911,227.052742 647.5,228.703116 647.5,230.5 L647.5,230.5 Z" id="audio-icon"></path>
        </g>
    </g>
</svg>