<?xml version="1.0" encoding="UTF-8" standalone="no"?>
<svg width="20px" height="15px" viewBox="0 0 20 15" version="1.1" xmlns="http://www.w3.org/2000/svg" xmlns:xlink="http://www.w3.org/1999/xlink">
    <!-- Generator: Sketch 3.6.1 (26313) - http://www.bohemiancoding.com/sketch -->
    <title>video-camera-icon</title>
    <desc>Created with Sketch.</desc>
    <defs>
        <linearGradient x1="50%" y1="0%" x2="50%" y2="100%" id="linearGradient-1">
            <stop stop-color="#4FACFF" offset="0%"></stop>
            <stop stop-color="#316B9E" offset="100%"></stop>
        </linearGradient>
    </defs>
    <g id="Page-1" stroke="none" stroke-width="1" fill="none" fill-rule="evenodd">
        <g id="Desktop" transform="translate(-101.000000, -223.000000)" fill="url(#linearGradient-1)">
            <path d="M120.617206,224.875268 L120.617206,236.553304 C120.617206,236.853843 120.477672,237.064933 120.1986,237.18658 C120.105576,237.222358 120.016131,237.240247 119.930263,237.240247 C119.737059,237.240247 119.576058,237.172269 119.447256,237.036311 L115.12166,232.710715 L115.12166,234.492474 C115.12166,235.344002 114.819336,236.072083 114.21468,236.676739 C113.610024,237.281395 112.881943,237.583719 112.030415,237.583719 L104.474039,237.583719 C103.622511,237.583719 102.89443,237.281395 102.289774,236.676739 C101.685118,236.072083 101.382794,235.344002 101.382794,234.492474 L101.382794,226.936098 C101.382794,226.08457 101.685118,225.356489 102.289774,224.751833 C102.89443,224.147176 103.622511,223.844853 104.474039,223.844853 L112.030415,223.844853 C112.881943,223.844853 113.610024,224.147176 114.21468,224.751833 C114.819336,225.356489 115.12166,226.08457 115.12166,226.936098 L115.12166,228.707123 L119.447256,224.392261 C119.576058,224.256303 119.737059,224.188324 119.930263,224.188324 C120.016131,224.188324 120.105576,224.206213 120.1986,224.241992 C120.477672,224.363639 120.617206,224.574729 120.617206,224.875268 L120.617206,224.875268 Z" id="video-camera-icon"></path>
        </g>
    </g>
</svg>