<?xml version="1.0" encoding="UTF-8" standalone="no"?>
<svg width="421px" height="59px" viewBox="0 0 421 59" version="1.1" xmlns="http://www.w3.org/2000/svg" xmlns:xlink="http://www.w3.org/1999/xlink">
    <!-- Generator: Sketch 3.6.1 (26313) - http://www.bohemiancoding.com/sketch -->
    <title>Youswap Heading Logo</title>
    <desc>Created with Sketch.</desc>
    <defs>
        <linearGradient x1="50%" y1="0%" x2="50%" y2="100%" id="linearGradient-1">
            <stop stop-color="#5C5CFE" offset="0%"></stop>
            <stop stop-color="#4141A9" offset="100%"></stop>
        </linearGradient>
        <linearGradient x1="50%" y1="0%" x2="50%" y2="100%" id="linearGradient-2">
            <stop stop-color="#FCE13C" offset="0%"></stop>
            <stop stop-color="#D05D00" offset="100%"></stop>
        </linearGradient>
        <linearGradient x1="50%" y1="0%" x2="50%" y2="100%" id="linearGradient-3">
            <stop stop-color="#4FACFF" offset="0%"></stop>
            <stop stop-color="#316B9E" offset="100%"></stop>
        </linearGradient>
    </defs>
    <g id="Page-1" stroke="none" stroke-width="1" fill="none" fill-rule="evenodd">
        <g id="Desktop" transform="translate(-302.000000, -41.000000)">
            <g id="Youswap-Heading-Logo" transform="translate(301.000000, 41.000000)">
                <path d="M94.5367791,37.8056352 L94.5367791,57.402455 L83.9960654,57.402455 L83.9960654,38.0283263 L67.9251886,6.03503337 L79.3566668,6.03503337 L89.3777678,27.5247278 L99.62156,6.03503337 L110.644771,6.03503337 L94.5367791,37.8056352 Z M158.783171,31.7187442 C158.783171,40.6511777 156.896501,47.3442165 153.123105,51.7980615 C149.349709,56.2519064 143.862901,58.4787955 136.662519,58.4787955 C129.066239,58.4787955 123.480459,56.1343762 119.905011,51.4454672 C116.329563,46.7565582 114.541866,40.1810496 114.541866,31.7187442 C114.541866,23.2069516 116.329563,16.6190714 119.905011,11.954906 C123.480459,7.29074062 129.066239,4.95869289 136.662519,4.95869289 C144.308286,4.95869289 149.906438,7.29074062 153.457142,11.954906 C157.007846,16.6190714 158.783171,23.2069516 158.783171,31.7187442 L158.783171,31.7187442 Z M147.982651,31.7187442 C147.982651,25.6318227 147.122825,21.196602 145.403146,18.4129489 C143.683467,15.6292958 140.769953,14.2374902 136.662519,14.2374902 C132.555084,14.2374902 129.641571,15.6292958 127.921892,18.4129489 C126.202213,21.196602 125.342386,25.6318227 125.342386,31.7187442 C125.342386,37.8056656 126.214584,42.2408864 127.959007,45.0245395 C129.703429,47.8081926 132.604571,49.1999982 136.662519,49.1999982 C140.769953,49.1999982 143.683467,47.8081926 145.403146,45.0245395 C147.122825,42.2408864 147.982651,37.8056656 147.982651,31.7187442 L147.982651,31.7187442 Z M209.779441,35.9498757 C209.779441,43.9915402 208.146389,49.7690802 204.880236,53.282669 C201.614083,56.7962578 196.207691,58.5530259 188.660898,58.5530259 C181.188336,58.5530259 175.800502,56.8148152 172.497234,53.3383418 C169.193965,49.8618684 167.542356,44.065771 167.542356,35.9498757 L167.542356,6.03503337 L178.008839,6.03503337 L178.008839,35.207572 C178.008839,38.6964172 178.342873,41.4429137 179.010949,43.4471439 C179.679026,45.4513742 180.742984,46.9235953 182.202856,47.8638514 C183.662727,48.8041076 185.790643,49.2742286 188.586668,49.2742286 C192.570385,49.2742286 195.353996,48.2164563 196.937586,46.1008799 C198.521175,43.9853036 199.312958,40.4037237 199.312958,35.3560327 L199.312958,6.03503337 L209.779441,6.03503337 L209.779441,35.9498757 Z M257.843611,42.5192642 C257.843611,47.6659295 256.154887,51.6124718 252.777388,54.3590095 C249.399888,57.1055472 244.420317,58.4787955 237.838524,58.4787955 C233.285705,58.4787955 229.332977,57.7241275 225.980221,56.2147689 C222.627466,54.7054104 219.899526,52.268204 217.796322,48.9030767 L225.850318,42.7419553 C227.03801,44.424519 228.163826,45.6864228 229.2278,46.5277046 C230.291774,47.3689864 231.553678,48.0246816 233.013549,48.4948096 C234.473421,48.9649377 236.155959,49.1999982 238.061215,49.1999982 C240.906727,49.1999982 243.12743,48.7113198 244.723392,47.7339483 C246.319353,46.7565767 247.117321,45.2657982 247.117321,43.261568 C247.117321,42.1233632 246.83896,41.1707495 246.282229,40.4036984 C245.725499,39.6366473 244.890415,38.9747664 243.776954,38.4180358 C242.663493,37.8613052 240.733522,37.2241675 237.986985,36.5066036 C235.314678,35.7890397 232.797056,35.0653007 230.434044,34.335365 C228.071032,33.6054293 226.029717,32.6590015 224.310038,31.4960531 C222.590359,30.3331046 221.235668,28.8732551 220.245924,27.1164607 C219.256181,25.3596663 218.761317,23.1451489 218.761317,20.4728419 C218.761317,15.598356 220.40674,11.7940872 223.697637,9.05992128 C226.988533,6.32575535 231.702115,4.95869289 237.838524,4.95869289 C246.72147,4.95869289 253.006246,8.00210796 256.69304,14.0890294 L248.713274,20.3243812 C247.30289,18.1469458 245.719325,16.5881235 243.96253,15.6478673 C242.205736,14.7076112 240.114934,14.2374902 237.690063,14.2374902 C235.265192,14.2374902 233.291921,14.6766822 231.770191,15.5550794 C230.24846,16.4334766 229.487606,17.8129106 229.487606,19.6934229 C229.487606,21.351243 230.279389,22.6193326 231.862979,23.4977298 C233.446568,24.376127 236.205436,25.2606968 240.139666,26.1514658 C242.317101,26.7205682 244.46976,27.3329627 246.597709,27.9886677 C248.725657,28.6443726 250.624698,29.5536857 252.29489,30.7166341 C253.965082,31.8795825 255.307401,33.40129 256.321888,35.2818023 C257.336375,37.1623146 257.843611,39.5747778 257.843611,42.5192642 L257.843611,42.5192642 Z M314.110237,57.402455 L303.383948,57.402455 L294.773224,23.442057 L286.125385,57.402455 L275.547556,57.402455 L262.55724,6.03503337 L272.986608,6.03503337 L281.189065,39.5500491 L289.688443,6.03503337 L300.043581,6.03503337 L308.617189,39.7727402 L317.042337,6.03503337 L327.397475,6.03503337 L314.110237,57.402455 Z M329.995538,57.402455 L346.994295,6.03503337 L360.615569,6.03503337 L377.651441,57.402455 L366.925151,57.402455 L363.510554,46.9730869 L343.728158,46.9730869 L340.387791,57.402455 L329.995538,57.402455 Z M346.697373,37.8056352 L360.541339,37.8056352 L353.637914,16.5757471 L346.697373,37.8056352 Z M421.70717,23.2564811 C421.70717,29.4423769 420.253507,34.0322427 417.346136,37.0262162 C414.438765,40.0201898 409.718997,41.5171541 403.186691,41.5171541 L394.650198,41.5171541 L394.650198,57.402455 L384.183714,57.402455 L384.183714,6.03503337 L403.483613,6.03503337 C409.298355,6.03503337 413.789248,7.38972423 416.956426,10.0991466 C420.123605,12.8085689 421.70717,17.1943032 421.70717,23.2564811 L421.70717,23.2564811 Z M410.90665,23.3307115 C410.90665,20.4357122 410.108682,18.3449108 408.512721,17.0582445 C406.91676,15.7715782 404.040361,15.1282547 399.883439,15.1282547 L394.650198,15.1282547 L394.650198,32.3868176 L398.918444,32.3868176 C402.7537,32.3868176 405.407409,32.1208281 406.879652,31.588841 C408.351896,31.056854 409.391111,30.1599126 409.997328,28.8979898 C410.603546,27.6360671 410.90665,25.7803262 410.90665,23.3307115 L410.90665,23.3307115 Z" id="YOUSWAP" fill="url(#linearGradient-1)"></path>
                <g id="Swap-Icon" transform="translate(26.699219, 29.281250) rotate(-270.000000) translate(-26.699219, -29.281250) translate(-2.300781, 3.281250)">
                    <g id="Group" transform="translate(-0.000000, 0.000000)">
                        <path d="M0.46875,22.9375 L21.625,1.78125 C22.84375,0.5625 24.828125,0.5625 26.046875,1.78125 C27.265625,3 27.265625,4.980469 26.046875,6.199219 L15.5625,16.6875 L54.109375,16.6875 C55.835938,16.6875 57.234375,18.085938 57.234375,19.8125 C57.234375,21.539062 55.835938,22.9375 54.109375,22.9375 L0.46875,22.9375 Z" id="Shape" fill="url(#linearGradient-2)"></path>
                        <path d="M31.390625,50.148438 C30.171875,48.925781 30.171875,46.949219 31.390625,45.726562 L41.878906,35.242188 L3.328125,35.242188 C1.601562,35.242188 0.203125,33.84375 0.203125,32.117188 C0.203125,30.390625 1.601562,28.992188 3.328125,28.992188 L56.964844,28.992188 L35.8125,50.148438 C35.199219,50.757812 34.402344,51.0625 33.601562,51.0625 C32.800781,51.0625 32.003906,50.757812 31.390625,50.148438 Z" id="Shape" fill="url(#linearGradient-3)"></path>
                    </g>
                </g>
            </g>
        </g>
    </g>
</svg>